<svg height="15" viewBox="0 0 15 15" width="15" xmlns="http://www.w3.org/2000/svg"><g fill="#fff"><path d="m10.384615 10.245534v1.941919c0 .596537-.4851914 1.081729-1.08173 1.081729h-6.490385c-.5965385 0-1.0817309-.485192-1.0817309-1.081729v-6.4903713c0-.5965372.4851924-1.0817286 1.0817309-1.0817286h1.9782692l1.7313461-1.7307657h-3.7096153c-1.5536539 0-2.8125 1.2588436-2.8125 2.8124943v6.4903713c0 1.553651 1.2588461 2.812495 2.8125 2.812495h6.490385c1.553654 0 2.8125-1.258844 2.8125-2.812495v-3.6732614z" stroke-width=".576924"/><path d="m22.581 0h-10.259c-1.886.002-1.755.51-.76 1.504l3.22 3.22-5.52 5.519c-1.145 1.144-1.144 2.998 0 4.141l2.41 2.411c1.144 1.141 2.996 1.142 4.14-.001l5.52-5.52 3.16 3.16c1.101 1.1 1.507 1.129 1.507-.757l.001-10.258c-.001-3.437.024-3.42-3.419-3.419z" transform="matrix(.57692308 0 0 .57692191 0 -.000022)"/></g></svg>