<svg height="15" viewBox="0 0 3.9687498 3.9687498" width="15" xmlns="http://www.w3.org/2000/svg"><path d="m.5.5v14h14v-14zm1.1582031 2.4765625c.031155-.011165.067794-.011767.1074219 0 .052837.015689.1097879.054169.1621094.1210937.4486356.5738531-.2440541-.3058503.2421875.2890626.037066.04535.069998.095969.1054687.1425781.029692.039015.063074.074159.089844.1152343.041525.063718.074904.1316036.1132812.1972657.03873.066266.079841.1313393.1191406.1972656.1552423.3043503.3561016.5822325.5488282.8632813.060988.088936.1309245.1734754.1835937.2675781.056458.1008718.1239138.2924872.1679688.4140625.02725.086971.049189.1777038.048828.2695312-.0000953.024265-.00586.047997-.00586.072266.0000004.00854.0002612-.018965.00586-.025391.00289-.00332.00372.00786.00586.011719.078606.1052447.014903.2178488.015625.3300781.0001046.016252.00862.032867.011719.048828.00588.030274.010406.061387.015625.091797.037908.3411062-.00904-.1160297.017578.2363281.00273.036132.010434.071225.011719.1074219.00213.059962-.00242.1196913-.00195.1796875.0003597.046443.011854.2807522.013672.3203125.012529.225789.0008348.4518717 0 .6777344.00302.1364749.00137.3178236-.078125.4355469-.00132.00195-.00252.00397-.00391.00586.0003546.00236.00134.00391.00195.00586.018985.06068.022113.1148582.017578.1777344-.00796.060053-.00583.038687-.00391.083984.062658-.1399049.013756-.015613-.035156.082031.00859.056793-.00427.076161-.046875.078125-.00421.00439-.013288.00776-.011719.013672.0008019.00302.00636-.014524.00781-.013672-.043322.00184-.1130441-.00335-.2675781.037109-.2322768.060816.1592859-.1076913.3007812-.1757813.058749-.028271.082749-.043571-.011719-.011719-.3242189.109319-.3280914-.00129-.3007813.1523437.025338.049077-.016949-.031758-.021484-.085937-.00477-.057004.019049-.091469.046875-.1308593.00046-.020894-.00188-.041705.00195-.0625.0008204-.00313-.000218-.00735.00195-.00977.00101-.00112.00372.00343.00391.00195.0028-.022979-.016155-.041938-.021484-.064453-.034847-.1472277-.023409-.100057.041016-.2617187-.00765.061701.036028-.085192.037109-.095703.00279-.027099.0001409-.054788 0-.082031-.0001421-.027439.0001193-.054573 0-.082031.0008995-.2201727.010007-.4400529-.00195-.6601563-.00299-.06525-.013577-.2805252-.013672-.3457031-.0000633-.043582.00751-.087308.00586-.1308594-.00176-.046341-.01211-.092433-.015625-.1386719-.027129-.3567458.026538.1760339-.011719-.1875-.013924-.08318-.030438-.1584927-.029297-.2441406.0004273-.032164.0078-.064084.013672-.095703.00143-.00771.0002526-.023601.00781-.021484.01141.00316.023976.040273.019531.029297-.00853-.021052-.020633-.038513-.03125-.058594-.028297-.07019-.029237-.060945-.039062-.15625-.00196-.019049.015062-.037078.00586-.056641-.00611-.057218-.015788-.077687-.03125-.1347656-.0209785-.0582668-.1081528-.3025356-.1269439-.3359315-.0532396-.0946205-.1222013-.1799829-.1835938-.2695313-.1966155-.2867882-.4015074-.5707128-.5605468-.8808593-.0407917-.0685115-.0833471-.1359279-.1230469-.2050782-.0290872-.0506645-.0520523-.1053747-.0839844-.1542968-.028876-.04424-.065796-.08286-.097656-.125-.0288531-.0381638-.053669-.0782211-.0839846-.1152344-.438847-.5357974.1377168.2003833-.2714844-.328125-.117015-.1511322-.0778399-.2770532.015625-.3105469zm1.8261719 5.796875c.0006205-.0000263.0033.0000278.00391 0 .00907-.00944.01908-.017745.025391-.029297.010246-.018764.00478-.018079.00586-.025391-.013132.022613-.029169.058207-.035156.054687zm.0625-.4199219c-.018198.022423-.039088.041104-.058594.0625.1087998.099911.059348-.018874.058594-.0625z" stroke="#000" stroke-width="1.001469" transform="scale(.26458332)"/><g fill="#f1f1f1"><path d="m2.560095-1.475656h.517663v2.860769h-.517663z" transform="matrix(.68908702 .7246786 -.7246786 .68908702 0 0)"/><path d="m-.351568 1.38738h.517663v2.860769h-.517663z" transform="matrix(.69008754 -.7237259 .7237259 .69008754 0 0)"/></g></svg>