<svg enable-background="new -6.948 0 38.562 60" height="60" viewBox="-6.948 0 38.562 60" width="38.562" xmlns="http://www.w3.org/2000/svg"><g transform="scale(.58823529)"><path d="m52.395 35.232c-.757-2.808-2.97-5.022-5.779-5.778-5.13-1.404-25.649-1.404-25.649-1.404s-20.52 0-25.65 1.35c-2.754.756-5.022 3.024-5.778 5.832-1.35 5.13-1.35 15.768-1.35 15.768s0 10.691 1.35 15.768c.756 2.807 2.97 5.022 5.778 5.777 5.184 1.404 25.65 1.404 25.65 1.404s20.52 0 25.649-1.35c2.809-.755 5.022-2.97 5.779-5.779 1.348-5.13 1.348-15.767 1.348-15.767s.055-10.691-1.348-15.821z" fill="#282828"/><path d="m31.497 51-17.064-9.828v19.656z" fill="#fff"/></g></svg>