<svg enable-background="new 0 0 27 60" height="60" viewBox="0 0 27 60" width="27" xmlns="http://www.w3.org/2000/svg"><path d="m24.3 16.5h-21.6c-1.485 0-2.7 1.215-2.7 2.7v21.6c0 1.485 1.215 2.7 2.7 2.7h21.6c1.485 0 2.7-1.215 2.7-2.7v-21.6c0-1.485-1.214-2.7-2.7-2.7zm-10.8 8.1c2.97 0 5.4 2.43 5.4 5.4s-2.431 5.4-5.4 5.4c-2.97 0-5.4-2.431-5.4-5.4 0-2.97 2.43-5.4 5.4-5.4zm-10.125 16.2c-.405 0-.675-.27-.675-.675v-11.475h2.835c-.135.405-.135.945-.135 1.35 0 4.455 3.645 8.1 8.1 8.1s8.1-3.645 8.1-8.1c0-.405 0-.945-.135-1.35h2.835v11.475c0 .405-.27.675-.675.675zm20.925-18.225c0 .405-.27.675-.675.675h-2.7c-.405 0-.675-.27-.675-.675v-2.7c0-.405.27-.675.675-.675h2.7c.406 0 .675.27.675.675z"/></svg>